<svg width="370" height="110" viewBox="0 0 370 110" fill="none" xmlns="http://www.w3.org/2000/svg">
<path d="M46.5455 2L46.5455 71.8182L38.5 71.8182L38.5 46.0455L37.8182 46.0455C37.2273 46.9545 36.4091 48.1136 35.3636 49.5227C34.2955 50.9545 32.7727 52.2273 30.7955 53.3409C28.7955 54.4773 26.0909 55.0455 22.6818 55.0455C18.2727 55.0455 14.3864 53.9432 11.0227 51.7386C7.65909 49.5341 5.03409 46.4091 3.14773 42.3636C1.26137 38.3182 0.318184 33.5455 0.318184 28.0454C0.318185 22.5 1.26137 17.6932 3.14773 13.625C5.0341 9.57954 7.64773 6.44318 10.9886 4.21591C14.3296 2.01136 18.1818 0.909088 22.5455 0.909088C25.9091 0.909088 28.6023 1.46591 30.625 2.57954C32.6477 3.71591 34.2046 5 35.2955 6.43182C36.3864 7.88636 37.2273 9.09091 37.8182 10.0455L38.7727 10.0455L38.7727 2L46.5455 2ZM38.6364 28.1818C38.6364 24.2273 38.0568 20.7386 36.8977 17.7159C35.7386 14.7159 34.0455 12.3636 31.8182 10.6591C29.5909 8.97727 26.8636 8.13636 23.6364 8.13636C20.2727 8.13636 17.4659 9.02272 15.2159 10.7955C12.9432 12.5909 11.2386 15 10.1023 18.0227C8.94319 21.0682 8.36364 24.4545 8.36364 28.1818C8.36364 31.8636 8.93182 35.1818 10.0682 38.1364C11.1818 41.1136 12.875 43.4659 15.1477 45.1932C17.3977 46.9432 20.2273 47.8182 23.6364 47.8182C26.9091 47.8182 29.6591 46.9886 31.8864 45.3295C34.1136 43.6932 35.7955 41.3977 36.9318 38.4432C38.0682 35.5114 38.6364 32.0909 38.6364 28.1818Z" fill="white"/>
<path d="M5.5909 95.6818L5.5909 88.7273L36.2727 40.1818L41.3182 40.1818L41.3182 50.9546L37.9091 50.9546L14.7273 87.6364L14.7273 88.1818L56.0454 88.1818L56.0454 95.6818L5.5909 95.6818ZM38.4545 110L38.4545 93.5682L38.4545 90.3296L38.4545 40.1818L46.5 40.1818L46.5 110L38.4545 110Z" fill="white"/>
<path d="M87.4545 95V25.1818H95.5V50.9545H96.1818C96.7727 50.0455 97.5909 48.8864 98.6364 47.4773C99.7045 46.0455 101.227 44.7727 103.205 43.6591C105.205 42.5227 107.909 41.9545 111.318 41.9545C115.727 41.9545 119.614 43.0568 122.977 45.2614C126.341 47.4659 128.966 50.5909 130.852 54.6364C132.739 58.6818 133.682 63.4545 133.682 68.9545C133.682 74.5 132.739 79.3068 130.852 83.375C128.966 87.4205 126.352 90.5568 123.011 92.7841C119.67 94.9886 115.818 96.0909 111.455 96.0909C108.091 96.0909 105.398 95.5341 103.375 94.4205C101.352 93.2841 99.7955 92 98.7045 90.5682C97.6136 89.1136 96.7727 87.9091 96.1818 86.9545H95.2273V95H87.4545ZM95.3636 68.8182C95.3636 72.7727 95.9432 76.2614 97.1023 79.2841C98.2614 82.2841 99.9545 84.6364 102.182 86.3409C104.409 88.0227 107.136 88.8636 110.364 88.8636C113.727 88.8636 116.534 87.9773 118.784 86.2045C121.057 84.4091 122.761 82 123.898 78.9773C125.057 75.9318 125.636 72.5455 125.636 68.8182C125.636 65.1364 125.068 61.8182 123.932 58.8636C122.818 55.8864 121.125 53.5341 118.852 51.8068C116.602 50.0568 113.773 49.1818 110.364 49.1818C107.091 49.1818 104.341 50.0114 102.114 51.6705C99.8864 53.3068 98.2045 55.6023 97.0682 58.5568C95.9318 61.4886 95.3636 64.9091 95.3636 68.8182ZM167.943 96.0909C162.898 96.0909 158.545 94.9773 154.886 92.75C151.25 90.5 148.443 87.3636 146.466 83.3409C144.511 79.2955 143.534 74.5909 143.534 69.2273C143.534 63.8636 144.511 59.1364 146.466 55.0455C148.443 50.9318 151.193 47.7273 154.716 45.4318C158.261 43.1136 162.398 41.9545 167.125 41.9545C169.852 41.9545 172.545 42.4091 175.205 43.3182C177.864 44.2273 180.284 45.7045 182.466 47.75C184.648 49.7727 186.386 52.4545 187.682 55.7955C188.977 59.1364 189.625 63.25 189.625 68.1364V71.5455H149.261V64.5909H181.443C181.443 61.6364 180.852 59 179.67 56.6818C178.511 54.3636 176.852 52.5341 174.693 51.1932C172.557 49.8523 170.034 49.1818 167.125 49.1818C163.92 49.1818 161.148 49.9773 158.807 51.5682C156.489 53.1364 154.705 55.1818 153.455 57.7045C152.205 60.2273 151.58 62.9318 151.58 65.8182V70.4545C151.58 74.4091 152.261 77.7614 153.625 80.5114C155.011 83.2386 156.932 85.3182 159.386 86.75C161.841 88.1591 164.693 88.8636 167.943 88.8636C170.057 88.8636 171.966 88.5682 173.67 87.9773C175.398 87.3636 176.886 86.4545 178.136 85.25C179.386 84.0227 180.352 82.5 181.034 80.6818L188.807 82.8636C187.989 85.5 186.614 87.8182 184.682 89.8182C182.75 91.7955 180.364 93.3409 177.523 94.4545C174.682 95.5455 171.489 96.0909 167.943 96.0909ZM225.182 42.6364V49.4545H196.955V42.6364H225.182ZM205.409 95V35.4091C205.409 32.4091 206.114 29.9091 207.523 27.9091C208.932 25.9091 210.761 24.4091 213.011 23.4091C215.261 22.4091 217.636 21.9091 220.136 21.9091C222.114 21.9091 223.727 22.0682 224.977 22.3864C226.227 22.7045 227.159 23 227.773 23.2727L225.455 30.2273C225.045 30.0909 224.477 29.9205 223.75 29.7159C223.045 29.5114 222.114 29.4091 220.955 29.4091C218.295 29.4091 216.375 30.0795 215.193 31.4205C214.034 32.7614 213.455 34.7273 213.455 37.3182V95H205.409ZM255.574 96.0909C250.847 96.0909 246.699 94.9659 243.131 92.7159C239.585 90.4659 236.812 87.3182 234.812 83.2727C232.835 79.2273 231.847 74.5 231.847 69.0909C231.847 63.6364 232.835 58.875 234.812 54.8068C236.812 50.7386 239.585 47.5795 243.131 45.3295C246.699 43.0795 250.847 41.9545 255.574 41.9545C260.301 41.9545 264.438 43.0795 267.983 45.3295C271.551 47.5795 274.324 50.7386 276.301 54.8068C278.301 58.875 279.301 63.6364 279.301 69.0909C279.301 74.5 278.301 79.2273 276.301 83.2727C274.324 87.3182 271.551 90.4659 267.983 92.7159C264.438 94.9659 260.301 96.0909 255.574 96.0909ZM255.574 88.8636C259.165 88.8636 262.119 87.9432 264.438 86.1023C266.756 84.2614 268.472 81.8409 269.585 78.8409C270.699 75.8409 271.256 72.5909 271.256 69.0909C271.256 65.5909 270.699 62.3295 269.585 59.3068C268.472 56.2841 266.756 53.8409 264.438 51.9773C262.119 50.1136 259.165 49.1818 255.574 49.1818C251.983 49.1818 249.028 50.1136 246.71 51.9773C244.392 53.8409 242.676 56.2841 241.562 59.3068C240.449 62.3295 239.892 65.5909 239.892 69.0909C239.892 72.5909 240.449 75.8409 241.562 78.8409C242.676 81.8409 244.392 84.2614 246.71 86.1023C249.028 87.9432 251.983 88.8636 255.574 88.8636ZM291.582 95V42.6364H299.355V50.5455H299.901C300.855 47.9545 302.582 45.8523 305.082 44.2386C307.582 42.625 310.401 41.8182 313.537 41.8182C314.128 41.8182 314.866 41.8295 315.753 41.8523C316.639 41.875 317.31 41.9091 317.764 41.9545V50.1364C317.491 50.0682 316.866 49.9659 315.889 49.8295C314.935 49.6705 313.923 49.5909 312.855 49.5909C310.31 49.5909 308.037 50.125 306.037 51.1932C304.06 52.2386 302.491 53.6932 301.332 55.5568C300.196 57.3977 299.628 59.5 299.628 61.8636V95H291.582ZM347.662 96.0909C342.616 96.0909 338.264 94.9773 334.605 92.75C330.969 90.5 328.162 87.3636 326.185 83.3409C324.23 79.2955 323.253 74.5909 323.253 69.2273C323.253 63.8636 324.23 59.1364 326.185 55.0455C328.162 50.9318 330.912 47.7273 334.435 45.4318C337.98 43.1136 342.116 41.9545 346.844 41.9545C349.571 41.9545 352.264 42.4091 354.923 43.3182C357.582 44.2273 360.003 45.7045 362.185 47.75C364.366 49.7727 366.105 52.4545 367.401 55.7955C368.696 59.1364 369.344 63.25 369.344 68.1364V71.5455H328.98V64.5909H361.162C361.162 61.6364 360.571 59 359.389 56.6818C358.23 54.3636 356.571 52.5341 354.412 51.1932C352.276 49.8523 349.753 49.1818 346.844 49.1818C343.639 49.1818 340.866 49.9773 338.526 51.5682C336.207 53.1364 334.423 55.1818 333.173 57.7045C331.923 60.2273 331.298 62.9318 331.298 65.8182V70.4545C331.298 74.4091 331.98 77.7614 333.344 80.5114C334.73 83.2386 336.651 85.3182 339.105 86.75C341.56 88.1591 344.412 88.8636 347.662 88.8636C349.776 88.8636 351.685 88.5682 353.389 87.9773C355.116 87.3636 356.605 86.4545 357.855 85.25C359.105 84.0227 360.071 82.5 360.753 80.6818L368.526 82.8636C367.707 85.5 366.332 87.8182 364.401 89.8182C362.469 91.7955 360.082 93.3409 357.241 94.4545C354.401 95.5455 351.207 96.0909 347.662 96.0909Z" fill="white"/>
</svg>
